<?xml version="1.0" standalone="no"?>
<!DOCTYPE svg PUBLIC "-//W3C//DTD SVG 20010904//EN"
 "http://www.w3.org/TR/2001/REC-SVG-20010904/DTD/svg10.dtd">
<svg version="1.0" xmlns="http://www.w3.org/2000/svg"
 width="800.000000pt" height="778.000000pt" viewBox="0 0 800.000000 778.000000"
 preserveAspectRatio="xMidYMid meet">

<g transform="translate(0.000000,778.000000) scale(0.100000,-0.100000)"
fill="#000000" stroke="none">
<path d="M2576 4144 c-3 -26 -6 -95 -6 -153 l0 -106 48 -26 c26 -14 79 -44
117 -66 39 -22 122 -69 185 -105 63 -35 174 -97 245 -138 207 -117 252 -143
385 -217 69 -39 217 -123 330 -186 183 -103 207 -114 225 -103 21 14 201 116
390 221 145 81 652 367 735 415 187 108 279 160 318 179 41 21 42 22 42 74 0
36 -6 60 -20 77 -11 14 -20 31 -20 38 0 6 -3 12 -8 12 -4 0 -15 19 -25 41 -39
91 -34 90 -416 89 l-328 -1 -26 -112 c-14 -62 -37 -171 -51 -242 -42 -216 -26
-195 -209 -289 -144 -74 -157 -83 -152 -104 15 -60 -46 -161 -112 -188 -79
-34 -184 -2 -231 69 -21 31 -27 52 -27 96 1 132 116 208 255 166 l58 -17 134
72 134 72 17 91 c18 92 51 293 59 355 l5 32 -54 0 -54 0 6 -33 c9 -48 -28
-141 -68 -171 -63 -46 -131 -57 -194 -31 l-36 15 -131 -74 c-72 -41 -171 -96
-221 -123 l-90 -48 -6 -57 c-4 -40 -14 -68 -33 -93 -101 -132 -318 -77 -334
85 -6 65 2 93 40 135 65 75 136 88 243 45 28 -12 39 -7 205 87 96 55 189 109
207 119 30 18 31 21 30 81 l0 63 -136 0 c-108 -1 -142 -4 -167 -18 -18 -9 -63
-33 -100 -53 -38 -20 -144 -77 -236 -128 -232 -127 -229 -128 -243 61 l-10
133 -105 3 -105 3 -19 -36 c-11 -19 -40 -49 -64 -65 -38 -25 -55 -30 -107 -30
-50 0 -70 5 -100 26 -46 31 -67 51 -80 78 -7 14 -22 22 -46 24 -36 3 -36 3
-43 -44z"/>
<path d="M2805 4180 c7 -12 42 -12 70 0 15 6 8 9 -28 9 -30 1 -46 -3 -42 -9z"/>
<path d="M3385 4134 c-4 -31 -5 -58 -2 -60 2 -2 20 7 41 21 20 14 51 32 69 41
17 9 43 25 56 35 24 19 23 19 -66 19 l-91 0 -7 -56z"/>
<path d="M4271 4177 c-23 -28 -23 -71 -1 -100 27 -34 89 -38 120 -7 26 26 26
81 2 103 -23 21 -105 23 -121 4z"/>
<path d="M3544 3752 c-38 -25 -43 -90 -10 -128 50 -59 146 -22 146 56 0 50
-33 80 -86 80 -21 0 -44 -4 -50 -8z"/>
<path d="M4085 3475 c-32 -31 -32 -75 -1 -112 35 -40 98 -39 133 1 49 58 9
135 -70 136 -27 0 -45 -7 -62 -25z"/>
<path d="M4960 2133 c0 -236 4 -324 13 -343 14 -29 69 -47 111 -36 32 8 32 39
1 44 -11 1 -30 5 -42 8 l-23 4 -2 318 -3 317 -27 3 -28 3 0 -318z"/>
<path d="M6240 2405 c0 -21 5 -25 30 -25 25 0 30 4 30 25 0 21 -5 25 -30 25
-25 0 -30 -4 -30 -25z"/>
<path d="M1159 2403 c-11 -13 -14 -78 -14 -327 l0 -311 165 1 c183 0 221 8
277 57 64 56 77 102 77 267 1 159 -10 205 -63 263 -51 56 -97 67 -271 67 -134
0 -160 -2 -171 -17z m334 -39 c61 -21 92 -61 111 -144 19 -78 20 -141 5 -229
-14 -83 -30 -113 -76 -148 -35 -27 -40 -28 -184 -31 l-147 -4 -4 279 c-3 153
-3 281 -1 286 8 15 247 8 296 -9z"/>
<path d="M1760 2089 l0 -330 28 3 27 3 3 133 3 132 107 0 c76 0 113 -4 127
-14 20 -14 60 -87 109 -198 22 -49 30 -58 51 -58 14 0 25 2 25 4 0 4 -26 71
-40 101 -5 11 -19 43 -31 70 -12 28 -30 62 -40 77 l-19 26 46 27 c99 58 123
205 47 295 -47 56 -65 60 -263 60 l-180 0 0 -331z m368 271 c41 -25 52 -54 52
-139 0 -55 -4 -74 -22 -96 -35 -45 -74 -55 -213 -55 l-125 0 0 155 0 155 138
0 c119 0 141 -3 170 -20z"/>
<path d="M2490 2400 c0 -19 7 -20 115 -20 l115 0 0 -311 0 -310 28 3 27 3 3
308 2 307 115 0 c108 0 115 1 115 20 0 19 -7 20 -260 20 -253 0 -260 -1 -260
-20z"/>
<path d="M3067 2239 c-55 -22 -64 -29 -97 -83 -19 -32 -25 -57 -28 -125 -5
-114 9 -165 62 -217 35 -35 52 -44 116 -58 53 -11 85 -13 110 -7 19 5 52 12
73 16 28 4 37 11 37 26 0 19 -4 20 -57 12 -174 -24 -267 19 -289 135 l-6 32
185 0 c145 0 187 3 196 14 27 32 -12 190 -55 227 -57 49 -164 61 -247 28z
m183 -44 c47 -24 64 -52 68 -116 l4 -60 -163 3 -164 3 1 35 c2 51 34 112 69
129 62 30 132 32 185 6z"/>
<path d="M3596 2241 c-70 -24 -120 -76 -140 -144 -27 -95 -17 -180 31 -257 28
-45 63 -65 143 -84 58 -13 72 -13 132 1 61 14 68 18 68 40 0 18 -4 23 -17 19
-83 -25 -113 -27 -169 -16 -47 10 -67 20 -95 50 -40 41 -49 73 -49 162 0 101
42 165 126 188 44 13 154 9 187 -5 16 -6 18 -4 15 15 -6 47 -137 65 -232 31z"/>
<path d="M4060 2248 c-14 -6 -45 -20 -69 -31 -44 -20 -60 -15 -61 21 0 8 -8
12 -17 10 -17 -3 -18 -24 -21 -246 l-2 -242 25 0 25 0 0 189 0 190 33 25 c39
30 139 58 176 50 113 -25 115 -29 117 -254 1 -96 2 -181 3 -187 0 -7 12 -13
26 -13 l25 0 0 193 c0 220 -7 246 -75 284 -44 25 -139 31 -185 11z"/>
<path d="M4533 2242 c-96 -39 -134 -108 -134 -241 0 -142 48 -214 165 -245 57
-16 66 -16 126 0 85 21 120 44 150 96 22 39 25 54 25 153 0 98 -3 115 -23 150
-13 22 -33 46 -45 55 -66 47 -189 62 -264 32z m202 -52 c50 -25 80 -99 79
-195 0 -69 -4 -86 -28 -123 -33 -52 -74 -72 -151 -72 -109 0 -160 42 -178 144
-8 50 -8 80 1 124 22 105 73 144 182 139 36 -2 79 -9 95 -17z"/>
<path d="M5283 2242 c-63 -26 -100 -67 -124 -140 -16 -49 -20 -79 -16 -124 6
-72 45 -156 87 -187 77 -57 258 -50 324 13 84 79 88 312 7 393 -56 57 -194 79
-278 45z m202 -53 c41 -20 64 -56 76 -124 30 -166 -36 -266 -176 -264 -120 1
-163 38 -175 148 -20 183 39 267 181 258 36 -2 78 -10 94 -18z"/>
<path d="M5789 2237 c-66 -27 -88 -64 -89 -150 0 -63 9 -87 48 -129 14 -16 21
-28 15 -28 -6 0 -22 -12 -37 -27 -22 -22 -26 -34 -24 -67 5 -63 40 -76 198
-76 105 0 129 -3 148 -18 35 -27 28 -82 -13 -101 -44 -21 -159 -25 -240 -8
-38 8 -71 14 -72 13 0 0 -3 -10 -5 -20 -5 -30 52 -44 178 -45 81 -1 122 3 150
15 63 26 74 41 74 101 0 91 -43 113 -227 113 -90 0 -115 3 -128 16 -9 9 -14
23 -11 31 3 8 6 18 6 23 0 19 81 39 156 38 142 -1 199 45 198 162 0 45 -6 73
-18 93 l-18 27 81 0 81 0 0 -221 0 -220 28 3 27 3 3 238 c2 185 0 238 -10 241
-7 3 -110 7 -229 9 -204 5 -218 4 -270 -16z m219 -41 c66 -34 69 -187 4 -220
-71 -35 -191 -25 -233 20 -20 22 -24 35 -23 90 0 56 4 69 26 91 44 43 160 53
226 19z"/>
<path d="M6500 2247 c-35 -10 -46 -18 -48 -36 -3 -21 -1 -23 25 -16 15 4 67 9
114 12 131 7 169 -20 169 -121 l0 -44 -132 -4 c-115 -4 -138 -7 -170 -27 -79
-48 -91 -162 -22 -222 11 -9 44 -24 76 -33 52 -15 61 -15 120 0 34 9 78 25 95
36 l33 20 10 -26 c6 -16 17 -26 30 -26 19 0 20 6 20 183 -1 167 -3 186 -23
227 -30 61 -77 84 -177 87 -41 1 -95 -4 -120 -10z m260 -316 c0 -53 -3 -62
-30 -84 -44 -37 -93 -50 -172 -45 -87 7 -108 23 -108 88 0 85 27 99 188 100
l122 0 0 -59z"/>
<path d="M2432 1518 c-15 -15 -16 -41 0 -36 13 5 31 48 20 48 -5 0 -13 -5 -20
-12z"/>
<path d="M4510 1416 c0 -115 3 -126 41 -126 15 0 10 27 -6 34 -12 4 -15 26
-15 106 0 60 -4 100 -10 100 -6 0 -10 -45 -10 -114z"/>
<path d="M4617 1523 c-4 -3 -7 -52 -7 -108 0 -104 7 -125 42 -125 22 0 24 26
3 34 -12 4 -15 26 -15 106 0 92 -5 112 -23 93z"/>
<path d="M2250 1510 c0 -5 5 -10 11 -10 5 0 7 5 4 10 -3 6 -8 10 -11 10 -2 0
-4 -4 -4 -10z"/>
<path d="M3336 1513 c-3 -3 -6 -20 -6 -36 0 -28 -2 -29 -31 -23 -38 7 -84 -15
-93 -46 -21 -82 9 -119 96 -115 l58 2 0 107 c0 98 -6 128 -24 111z m-8 -140
l3 -53 -44 0 c-46 0 -57 10 -57 51 0 42 19 60 58 57 l37 -3 3 -52z"/>
<path d="M910 1399 c0 -84 3 -110 13 -107 8 3 13 37 15 111 2 91 0 107 -13
107 -13 0 -15 -18 -15 -111z"/>
<path d="M5580 1482 c0 -10 -6 -24 -12 -31 -10 -11 -10 -14 0 -18 8 -3 12 -25
12 -63 0 -62 14 -84 50 -78 27 4 27 22 0 26 -17 3 -20 11 -20 58 0 47 2 54 20
54 11 0 20 4 20 9 0 5 -9 11 -20 14 -12 3 -20 14 -20 26 0 12 -6 21 -15 21 -8
0 -15 -8 -15 -18z"/>
<path d="M4058 1452 l-38 -3 0 -80 c0 -46 4 -79 10 -79 6 0 10 27 10 60 0 58
1 60 36 78 42 21 36 29 -18 24z"/>
<path d="M4187 1453 l-38 -4 3 -76 c4 -98 26 -113 30 -21 3 57 5 64 31 76 24
12 39 35 20 30 -5 -1 -25 -3 -46 -5z"/>
<path d="M1010 1369 c0 -60 3 -80 13 -76 7 2 12 22 13 48 1 72 10 89 48 89 44
0 54 -14 58 -80 4 -71 22 -67 26 6 4 79 -11 94 -95 94 l-63 0 0 -81z"/>
<path d="M1230 1369 c0 -60 3 -80 13 -77 7 3 14 30 17 69 l5 64 39 3 c49 4 56
-6 56 -81 0 -42 3 -58 13 -55 19 7 21 105 2 134 -14 21 -23 24 -80 24 l-65 0
0 -81z"/>
<path d="M1457 1432 c-11 -12 -17 -36 -17 -65 0 -41 3 -48 30 -62 70 -36 130
-3 130 72 0 53 -23 73 -82 73 -31 0 -50 -6 -61 -18z m108 -57 l0 -50 -39 -3
c-44 -4 -56 7 -56 54 0 40 18 56 60 52 35 -3 35 -3 35 -53z"/>
<path d="M1640 1448 c0 -2 13 -37 29 -78 29 -74 48 -93 68 -68 16 20 55 140
48 147 -10 9 -34 -29 -41 -65 -7 -38 -31 -65 -38 -43 -19 65 -40 109 -52 109
-8 0 -14 -1 -14 -2z"/>
<path d="M1855 1440 c-4 -6 10 -9 36 -8 39 1 51 -6 50 -29 0 -4 -24 -12 -53
-18 -44 -8 -54 -14 -56 -33 -2 -13 4 -32 14 -43 14 -16 27 -19 73 -15 l56 4
-1 60 c-1 87 -5 92 -63 92 -27 0 -53 -4 -56 -10z m93 -92 c-2 -19 -10 -24 -45
-26 -31 -2 -43 1 -43 10 0 23 22 38 58 38 29 0 33 -3 30 -22z"/>
<path d="M2073 1442 c-19 -12 -34 -63 -28 -93 4 -15 17 -35 30 -43 32 -21 95
-21 95 -1 0 11 -7 13 -29 9 -52 -11 -88 46 -61 97 8 14 21 19 56 19 28 0 43 4
39 10 -7 12 -84 13 -102 2z"/>
<path d="M2220 1441 c0 -5 7 -11 15 -15 11 -4 15 -22 15 -72 0 -45 4 -64 12
-62 6 2 11 23 10 46 -2 119 0 112 -27 112 -14 0 -25 -4 -25 -9z"/>
<path d="M2360 1430 c-47 -47 -7 -140 59 -140 43 0 60 9 77 42 17 33 11 79
-13 103 -22 23 -98 20 -123 -5z m111 -21 c6 -12 8 -36 4 -55 -5 -31 -9 -34
-43 -34 -46 0 -62 14 -62 55 0 40 16 55 57 55 23 0 36 -6 44 -21z"/>
<path d="M2570 1369 c0 -60 3 -80 13 -77 7 3 14 30 17 69 l5 64 38 3 c44 4 49
-4 51 -81 1 -39 5 -52 16 -52 12 0 15 13 15 61 0 83 -11 94 -91 94 l-64 0 0
-81z"/>
<path d="M2890 1445 c0 -2 11 -28 24 -57 42 -94 44 -128 5 -128 -10 0 -19 -5
-19 -11 0 -6 12 -9 28 -7 23 3 33 16 74 98 52 104 54 110 35 110 -7 0 -26 -25
-42 -55 -15 -30 -30 -55 -32 -55 -2 0 -14 25 -28 55 -13 30 -29 55 -34 55 -6
0 -11 -2 -11 -5z"/>
<path d="M3436 1425 c-24 -36 -20 -82 9 -111 20 -20 33 -25 67 -22 59 4 63 28
5 28 -27 0 -49 6 -57 15 -15 18 -4 23 60 27 38 3 46 7 48 25 6 44 -14 63 -67
63 -41 0 -51 -4 -65 -25z m104 -20 c0 -23 -4 -25 -45 -25 -30 0 -45 4 -45 13
0 22 23 37 57 37 29 0 33 -3 33 -25z"/>
<path d="M3634 1436 c-8 -22 -1 -48 16 -56 8 -4 27 -13 43 -21 43 -20 34 -39
-19 -39 -57 0 -56 -23 0 -28 67 -6 105 57 49 79 -49 19 -58 26 -61 43 -3 13 5
16 37 16 23 0 41 5 41 10 0 16 -100 12 -106 -4z"/>
<path d="M3820 1441 c0 -6 19 -9 42 -8 38 1 50 -6 49 -30 0 -4 -24 -12 -53
-18 -44 -8 -54 -14 -56 -33 -2 -13 4 -32 14 -43 14 -16 27 -19 73 -15 l56 4 0
66 c0 48 -4 69 -15 76 -20 13 -110 13 -110 1z m100 -80 c0 -30 -14 -41 -51
-41 -40 0 -51 14 -27 38 14 14 78 16 78 3z"/>
<path d="M4300 1430 c-12 -12 -20 -33 -20 -55 0 -100 147 -118 166 -21 6 34
-8 73 -30 88 -23 16 -96 8 -116 -12z m108 -12 c17 -17 15 -73 -2 -87 -8 -7
-30 -11 -48 -9 -25 2 -35 9 -42 30 -15 43 6 78 47 78 18 0 38 -5 45 -12z"/>
<path d="M4736 1434 c-10 -10 -16 -33 -16 -64 0 -40 4 -50 25 -64 36 -24 87
-21 113 7 28 30 30 97 4 120 -24 22 -105 23 -126 1z m102 -13 c9 -5 12 -24 10
-52 -3 -43 -4 -44 -41 -47 -21 -2 -45 2 -53 9 -17 14 -19 70 -2 87 14 14 67
16 86 3z"/>
<path d="M5057 1432 c-11 -12 -17 -36 -17 -65 0 -42 3 -48 31 -62 34 -18 90
-17 96 2 3 8 -12 13 -44 15 -36 2 -49 7 -51 21 -3 14 5 17 52 17 l56 0 0 33
c0 18 -5 38 -12 45 -19 19 -92 15 -111 -6z m101 -29 c3 -21 -1 -23 -42 -23
-38 0 -46 3 -46 18 0 27 10 33 50 30 28 -2 36 -8 38 -25z"/>
<path d="M5252 1373 c4 -94 21 -100 28 -11 l5 63 35 3 c45 5 60 -17 60 -86 0
-38 4 -53 13 -50 19 7 21 105 2 134 -14 21 -23 24 -81 24 l-65 0 3 -77z"/>
<path d="M5710 1387 c0 -83 15 -99 91 -93 l54 4 3 76 c2 62 0 76 -12 76 -11 0
-16 -15 -18 -62 l-3 -63 -40 0 -40 0 -3 63 c-2 46 -7 62 -17 62 -12 0 -15 -15
-15 -63z"/>
<path d="M5932 1438 c-7 -7 -12 -17 -12 -23 0 -16 33 -45 52 -45 15 0 48 -30
48 -43 0 -4 -18 -7 -40 -7 -29 0 -40 -4 -40 -15 0 -10 10 -15 33 -15 36 0 77
24 77 44 0 17 -33 46 -52 46 -18 0 -51 34 -41 43 3 4 24 7 45 7 21 0 38 5 38
10 0 14 -94 12 -108 -2z"/>
<path d="M6210 1369 c0 -60 3 -80 13 -76 7 2 11 19 9 44 -2 21 2 52 8 67 8 23
15 27 42 24 33 -3 33 -3 38 -66 3 -34 10 -62 15 -62 6 0 12 28 15 62 5 61 6
63 35 66 39 5 55 -19 55 -85 0 -40 4 -53 15 -53 21 0 21 107 0 137 -13 19 -24
21 -130 21 l-115 1 0 -80z"/>
<path d="M6544 1438 c-5 -8 3 -9 29 -5 27 4 42 1 59 -13 27 -21 21 -25 -54
-35 -40 -5 -49 -10 -54 -31 -11 -43 18 -64 87 -61 l59 2 0 52 c0 28 -4 63 -10
77 -8 23 -15 26 -59 26 -27 0 -53 -5 -57 -12z m106 -81 c0 -23 -23 -37 -62
-37 -39 0 -49 15 -26 38 17 17 88 16 88 -1z"/>
<path d="M6732 1373 c2 -50 7 -78 16 -81 8 -2 12 12 12 50 0 69 15 91 60 86
l35 -3 3 -68 c4 -85 26 -88 30 -4 5 87 -5 97 -89 97 l-70 0 3 -77z"/>
<path d="M6960 1430 c-29 -29 -27 -84 5 -115 46 -47 129 -23 141 40 6 33 -8
73 -30 87 -23 16 -96 8 -116 -12z m114 -31 c5 -14 6 -38 2 -53 -5 -22 -12 -26
-44 -26 -46 0 -62 14 -62 55 0 41 17 57 60 53 27 -2 37 -9 44 -29z"/>
<path d="M7170 1435 c-19 -23 -7 -49 26 -60 34 -11 64 -33 64 -46 0 -5 -21 -9
-46 -9 -32 0 -44 -4 -42 -12 11 -34 118 -10 118 26 0 18 -30 42 -62 50 -19 4
-28 13 -28 26 0 16 7 20 35 20 19 0 35 5 35 10 0 16 -86 12 -100 -5z"/>
</g>
</svg>
